<?xml version="1.0" encoding="UTF-8" standalone="no"?>
<svg width="65px" height="73px" viewBox="0 0 65 73" version="1.1" xmlns="http://www.w3.org/2000/svg" xmlns:xlink="http://www.w3.org/1999/xlink">
    <!-- Generator: Sketch 3.8.3 (29802) - http://www.bohemiancoding.com/sketch -->
    <title>EGH_Home_Icons-04</title>
    <desc>Created with Sketch.</desc>
    <defs></defs>
    <g id="Current-Design" stroke="none" stroke-width="1" fill="none" fill-rule="evenodd">
        <g id="Home_Prop_V3-Copy-2" transform="translate(-178.000000, -2313.000000)">
            <g id="Video-Player" transform="translate(173.000000, 1685.000000)">
                <g id="Group-28" transform="translate(0.000000, 99.000000)">
                    <g id="EGH_Home_Icons-04" transform="translate(5.000000, 529.000000)">
                        <g id="Sketch">
                            <polygon id="Shape" fill="#DBE2E8" points="26.7647059 68.7327206 3.82352941 68.7327206 3.82352941 30.4974265 11.4705882 30.4974265 11.4705882 26.6738971 0 26.6738971 0 72.55625 30.5882353 72.55625 30.5882353 67.4900735 26.7647059 66.3955882"></polygon>
                            <polygon id="Shape" fill="#3B383D" points="20.4941176 26.6738971 30.5882353 29.5606618 30.5882353 26.6738971"></polygon>
                            <polygon id="Shape" fill="#DBE2E8" points="53.5294118 26.6738971 53.5294118 30.4974265 61.1764706 30.4974265 61.1764706 68.7327206 34.4117647 68.7327206 34.4117647 67.4900735 34.4117647 30.4974265 34.4117647 29.5606618 44.5058824 26.6738971 30.5882353 26.6738971 30.5882353 72.55625 65 72.55625 65 26.6738971"></polygon>
                            <path d="M53.5294118,24.0977941 L53.5294118,62.0272059 L34.4117647,67.4900735 L34.4117647,29.5606618 L53.5294118,24.0977941 L53.5294118,24.0977941 Z M57.3529412,19.0268382 L30.5882353,26.6738971 L30.5882353,72.55625 L57.3529412,64.9091912 L57.3529412,19.0268382 L57.3529412,19.0268382 Z" id="Shape" fill="#DBE2E8"></path>
                            <path d="M11.4705882,24.0977941 L30.5882353,29.5606618 L30.5882353,67.4900735 L11.4705882,62.0272059 L11.4705882,24.0977941 L11.4705882,24.0977941 Z M7.64705882,19.0268382 L7.64705882,64.9091912 L34.4117647,72.55625 L34.4117647,26.6738971 L7.64705882,19.0268382 Z" id="Shape" fill="#DBE2E8"></path>
                            <polygon id="Shape" fill="#DBE2E8" points="25.8327206 9.51580882 30.5882353 6.34227941 30.5882353 0 16.3169118 9.51580882 30.5882353 19.0268382 30.5882353 12.6845588"></polygon>
                            <polygon id="Shape" fill="#DBE2E8" points="39.1672794 9.51580882 34.4117647 6.34227941 34.4117647 0 48.6830882 9.51580882 34.4117647 19.0268382 34.4117647 12.6845588"></polygon>
                        </g>
                    </g>
                </g>
            </g>
        </g>
    </g>
</svg>