<?xml version="1.0" encoding="UTF-8" standalone="no"?>
<svg width="70px" height="57px" viewBox="0 0 70 57" version="1.1" xmlns="http://www.w3.org/2000/svg" xmlns:xlink="http://www.w3.org/1999/xlink">
    <!-- Generator: Sketch 3.8.3 (29802) - http://www.bohemiancoding.com/sketch -->
    <title>EGH_Home_Icons-03</title>
    <desc>Created with Sketch.</desc>
    <defs></defs>
    <g id="Current-Design" stroke="none" stroke-width="1" fill="none" fill-rule="evenodd">
        <g id="Home_Prop_V3-Copy-2" transform="translate(-173.000000, -2211.000000)" fill="#DBE2E8">
            <g id="Video-Player" transform="translate(173.000000, 1685.000000)">
                <g id="Group-28" transform="translate(0.000000, 99.000000)">
                    <g id="EGH_Home_Icons-03" transform="translate(0.000000, 427.000000)">
                        <g id="Sketch">
                            <path d="M63.5949381,17.0102785 L65.1058798,15.4993369 C65.8389742,14.6372684 65.7849932,13.3561788 64.9819765,12.5588372 C64.1789598,11.7614955 62.8975196,11.7166015 62.040672,12.4557913 L60.4918214,14.0046419 C57.4062713,11.4893452 53.7374201,9.79087198 49.8231653,9.06564987 L49.8231653,4.33244916 L51.4478338,4.33244916 C52.6442066,4.33244916 53.6140584,3.36259738 53.6140584,2.16622458 C53.6140584,0.96985178 52.6442066,7.3256706e-17 51.4478338,0 L39.5335986,0 C38.3372258,-7.3256706e-17 37.367374,0.96985178 37.367374,2.16622458 C37.367374,3.36259738 38.3372258,4.33244916 39.5335986,4.33244916 L41.158267,4.33244916 L41.158267,8.66489832 L17.3297966,8.66489832 C14.937051,8.66489832 12.9973475,10.6046019 12.9973475,12.9973475 C12.9973475,15.3900931 14.937051,17.3297966 17.3297966,17.3297966 L27.1103006,17.3297966 C26.0081045,18.6664468 25.0547605,20.1191614 24.2671309,21.6622458 L4.33244916,21.6622458 C1.93970356,21.6622458 2.93026824e-16,23.6019494 0,25.994695 C-2.93026824e-16,28.3874406 1.93970356,30.3271441 4.33244916,30.3271441 L21.6622458,30.3271441 L21.770557,30.2188329 C21.7001547,30.9661804 21.6622458,31.724359 21.6622458,32.4933687 C21.6622458,33.2623784 21.7001547,34.020557 21.770557,34.7679045 L21.6622458,34.6595933 L12.9973475,34.6595933 C10.6046019,34.6595933 8.66489832,36.5992968 8.66489832,38.9920424 C8.66489832,41.384788 10.6046019,43.3244916 12.9973475,43.3244916 L24.2671309,43.3244916 C25.0547605,44.867576 26.0081045,46.3202906 27.1103006,47.6569408 L8.66489832,47.6569408 C6.27215272,47.6569408 4.33244916,49.5966443 4.33244916,51.9893899 C4.33244916,54.3821355 6.27215272,56.3218391 8.66489832,56.3218391 L43.3244916,56.3218391 L43.0807913,56.2026967 C43.8816063,56.2826256 44.6859224,56.3223896 45.4907162,56.3218391 C54.7891244,56.3185311 63.2362415,50.9067295 67.1258051,42.4609197 C71.0153687,34.01511 69.6367912,24.078264 63.5949381,17.0102785 L63.5949381,17.0102785 Z M45.4907162,51.9893899 C34.723361,51.9893899 25.994695,43.2607239 25.994695,32.4933687 C25.994695,21.7260135 34.723361,12.9973475 45.4907162,12.9973475 C56.2580714,12.9973475 64.9867374,21.7260135 64.9867374,32.4933687 C64.9867374,37.664035 62.9326982,42.6229243 59.276485,46.2791375 C55.6202718,49.9353507 50.6613825,51.9893899 45.4907162,51.9893899 L45.4907162,51.9893899 Z" id="Shape"></path>
                            <path d="M50.2726569,25.7293324 L47.6569408,28.3450486 L47.6569408,18.4129089 C47.6569408,17.2165361 46.687089,16.2466844 45.4907162,16.2466844 C44.2943434,16.2466844 43.3244916,17.2165361 43.3244916,18.4129089 L43.3244916,33.576481 C43.3280253,34.4758436 43.8869094,35.2794755 44.7288175,35.5957924 C45.5707256,35.9121093 46.5205154,35.6753078 47.1153846,35.0007737 C47.147878,34.9736958 47.1857869,34.9520336 47.2128647,34.9195402 L53.3378647,28.7945402 C53.8854114,28.2469936 54.0992527,27.448927 53.8988367,26.7009644 C53.6984207,25.9530018 53.1141954,25.3687765 52.3662328,25.1683605 C51.6182702,24.9679445 50.8202036,25.1817858 50.2726569,25.7293324 L50.2726569,25.7293324 Z" id="Shape"></path>
                        </g>
                    </g>
                </g>
            </g>
        </g>
    </g>
</svg>