<?xml version="1.0" encoding="utf-8"?>
<!-- Generator: Adobe Illustrator 18.1.0, SVG Export Plug-In . SVG Version: 6.00 Build 0)  -->
<svg version="1.1" id="Layer_1" xmlns="http://www.w3.org/2000/svg" xmlns:xlink="http://www.w3.org/1999/xlink" x="0px" y="0px"
	 viewBox="0 90 612 612" enable-background="new 0 90 612 612" xml:space="preserve">
<rect y="90" fill="#F0DB4F" width="612" height="612"/>
<path fill="#323330" d="M561.9,556c-4.5-27.9-22.7-51.4-76.6-73.2c-18.7-8.6-39.6-14.8-45.8-29c-2.2-8.3-2.5-12.9-1.1-17.9
	c4-16.2,23.4-21.3,38.7-16.6c9.9,3.3,19.3,10.9,24.9,23.1c26.4-17.1,26.4-17,44.8-28.7c-6.7-10.5-10.4-15.3-14.8-19.8
	c-15.9-17.7-37.5-26.9-72.1-26.2c-6,0.8-12,1.6-18,2.3c-17.3,4.4-33.7,13.4-43.4,25.6c-29,32.9-20.7,90.4,14.5,114.1
	c34.7,26.1,85.7,32,92.3,56.4c6.3,29.8-21.9,39.5-50,36.1c-20.7-4.3-32.2-14.8-44.7-34c-22.9,13.3-22.9,13.3-46.5,26.8
	c5.6,12.2,11.5,17.7,20.8,28.3c44.3,45,155.3,42.8,175.2-25.3C560.9,595.7,566.2,580.1,561.9,556z M332.7,371.3h-57.2
	c0,49.4-0.2,98.5-0.2,148c0,31.5,1.6,60.3-3.5,69.2c-8.4,17.4-30.1,15.2-40,11.9c-10.1-4.9-15.2-12-21.1-21.9
	c-1.6-2.9-2.9-5.1-3.3-5.2c-15.5,9.5-31,19-46.5,28.5c7.7,15.9,19.1,29.7,33.7,38.6c21.8,13.1,51.1,17.1,81.8,10.1
	c20-5.8,37.2-17.9,46.2-36.2c13-24,10.2-53.1,10.1-85.3C333,476.4,332.7,423.9,332.7,371.3z"/>
</svg>
