<?xml version="1.0" encoding="utf-8"?>
<!-- Generator: Adobe Illustrator 18.1.0, SVG Export Plug-In . SVG Version: 6.00 Build 0)  -->
<svg version="1.1" id="Layer_1" xmlns="http://www.w3.org/2000/svg" xmlns:xlink="http://www.w3.org/1999/xlink" x="0px" y="0px"
	 viewBox="0 0 36.6 32.1" enable-background="new 0 0 36.6 32.1" xml:space="preserve">
<path fill="#80BE42" d="M14.2,32.1c-0.4,0-0.9-0.1-1.2-0.3l-3.9-2.3C8.5,29.1,8.8,29,9,28.9c0.8-0.3,0.9-0.3,1.8-0.8
	c0.1,0,0.2,0,0.3,0l3,1.8c0.1,0.1,0.3,0.1,0.4,0l11.8-6.8c0.1-0.1,0.2-0.2,0.2-0.3V9.3c0-0.1-0.1-0.3-0.2-0.3L14.4,2.1
	c-0.1-0.1-0.3-0.1-0.4,0L2.3,8.9C2.2,9,2.1,9.1,2.1,9.3v13.6c0,0.1,0.1,0.3,0.2,0.3L5.5,25c1.7,0.9,2.8-0.2,2.8-1.2V10.4
	c0-0.2,0.2-0.3,0.3-0.3h1.5c0.2,0,0.3,0.1,0.3,0.3v13.4c0,2.3-1.3,3.7-3.5,3.7c-0.7,0-1.2,0-2.7-0.7L1.2,25C0.5,24.5,0,23.7,0,22.8
	V9.3c0-0.9,0.5-1.7,1.2-2.1L13,0.3c0.7-0.4,1.7-0.4,2.5,0l11.8,6.8c0.8,0.4,1.2,1.3,1.2,2.1v13.6c0,0.9-0.5,1.7-1.2,2.1l-11.8,6.8
	C15.1,32,14.7,32.1,14.2,32.1z"/>
<path fill="#80BE42" d="M17.9,22.7c-5.1,0-6.2-2.4-6.2-4.3c0-0.2,0.2-0.3,0.3-0.3h1.5c0.2,0,0.3,0.1,0.3,0.3c0.2,1.5,0.9,2.3,4,2.3
	c2.5,0,3.5-0.6,3.5-1.9c0-0.8-0.3-1.3-4.1-1.7c-3.2-0.3-5.2-1-5.2-3.6c0-2.4,2-3.8,5.4-3.8c3.8,0,5.6,1.3,5.9,4.1
	c0,0.1,0,0.2-0.1,0.3c-0.1,0.1-0.2,0.1-0.2,0.1h-1.5c-0.2,0-0.3-0.1-0.3-0.3c-0.4-1.6-1.3-2.1-3.7-2.1c-2.7,0-3,0.9-3,1.6
	c0,0.9,0.4,1.1,4,1.6c3.6,0.5,5.3,1.2,5.3,3.7C23.7,21.3,21.6,22.7,17.9,22.7z"/>
<g>
	<path fill="#80BE42" d="M36.6,4c0,1.2-1,2.3-2.3,2.3c-1.2,0-2.3-1-2.3-2.3c0-1.3,1.1-2.3,2.3-2.3C35.6,1.7,36.6,2.7,36.6,4z
		 M32.4,4c0,1.1,0.9,1.9,1.9,1.9c1.1,0,1.9-0.9,1.9-1.9c0-1.1-0.9-1.9-1.9-1.9C33.3,2.1,32.4,2.9,32.4,4z M33.5,2.7h0.9
		c0.3,0,0.9,0,0.9,0.7c0,0.5-0.3,0.6-0.5,0.6c0.3,0,0.4,0.3,0.4,0.6c0,0.2,0.1,0.6,0.1,0.7h-0.5c0-0.1-0.1-0.8-0.1-0.8
		c0-0.1-0.1-0.2-0.3-0.2H34v1h-0.5V2.7z M34,3.8h0.4c0.3,0,0.4-0.2,0.4-0.4c0-0.3-0.2-0.3-0.4-0.3H34V3.8z"/>
</g>
</svg>
